<svg xmlns="http://www.w3.org/2000/svg" viewBox="0 0 2000 622" width="2000" height="622"><title>Logo Neo 1000x1000-ai</title><style>		.s0 { fill: #1e78c2 } 		.s1 { fill: #ffffff } 		.s2 { fill: #1e78c2;stroke: #1e78c2;stroke-width: 8 } 	</style><g id="Capa 1"><path id="&lt;Path&gt;" class="s0" d="m795.2 243.2h-153.3c-59 0-107.3-48.3-107.3-107.3c0-62.9 51.5-114.4 114.5-114.4h146.1c59 0 107.3 48.2 107.3 107.2v7.2c0 59-48.3 107.3-107.3 107.3z"></path><path id="&lt;Path&gt;" class="s1" d="m844.9 130.2c0 30-24.3 54.3-54.3 54.3c-30 0-54.3-24.3-54.3-54.3c0-30 24.3-54.3 54.3-54.3c30 0 54.3 24.3 54.3 54.3z"></path><path id="&lt;Compound Path&gt;" fill-rule="evenodd" class="s2" d="m243.7 406h-150.2c2 28 27.5 48.6 56.3 48.6c24.7 0 41.2-9.9 52.3-25.6l32.9 26.4c-19.3 26.3-47.3 39.5-84.7 39.5c-61 0-106.2-39.1-106.2-103.3c0-63.8 44.8-105.8 104.5-105.8c55.2 0 95.5 35.8 95.5 107c0 4.6 0 8.7-0.4 13.2zm-49-35.4c0-25.5-14.4-47.7-46.5-47.7c-29.2 0-52.7 20.1-54.7 47.7z"></path><path id="&lt;Compound Path&gt;" class="s2" d="m575.8 365.7v123.4h-49.4v-109.4c0-23.5-5.4-52.7-37-52.7c-30.9 0-43.7 28.8-43.7 54.3v107.8h-49.4v-119.3c0-24.3-11.5-42.8-36.6-42.8c-29.6 0-43.2 27.1-43.2 53.5v108.6h-49.4v-197.5h46.9v31.7h0.9c8.6-19.4 29.6-37.5 61.3-37.5c30.4 0 50.6 15.3 61.7 37.5c13.2-23.9 35.4-37.5 65-37.5c51.5 0 72.9 39.5 72.9 79.9z"></path><path id="&lt;Compound Path&gt;" fill-rule="evenodd" class="s2" d="m731.3 464h-1.2c-9.9 17.3-33.3 30.1-61.3 30.1c-31.7 0-74.1-15.3-74.1-61.4c0-58.8 74.1-67 135.8-67v-5c0-24.3-20.6-36.2-45.2-36.2c-21 0-41.2 9.9-54 22.6l-25.5-30c22.2-20.6 53.5-31.3 83.6-31.3c70.7 0 88 43.7 88 83.2v120.1h-46.1zm-0.8-65h-11.1c-31.3 0-75.3 3.7-75.3 32.9c0 19 17.7 24.7 34.6 24.7c33.7 0 51.8-19.3 51.8-50.6z"></path><path id="&lt;Compound Path&gt;" class="s2" d="m810.4 291.6h47.3v32.9h0.8c10.7-22.6 31.7-38.7 57.6-38.7c3.7 0 8.7 0.4 12 1.3v45.2c-6.6-1.6-10.7-2-15.3-2c-44.4 0-53.1 38.7-53.1 53.1v105.7h-49.3z"></path><path id="&lt;Compound Path&gt;" class="s2" d="m944 238.2h49.4v136.5h1.2l74.9-83.1h63.4l-85.6 89.3l90.9 108.2h-65.4l-78.2-101.2h-1.2v101.2h-49.4z"></path><path id="&lt;Compound Path&gt;" fill-rule="evenodd" class="s2" d="m1317.5 406h-150.2c2 28 27.5 48.6 56.3 48.6c24.7 0 41.2-9.9 52.3-25.6l32.9 26.4c-19.3 26.3-47.3 39.5-84.8 39.5c-60.9 0-106.1-39.1-106.1-103.3c0-63.8 44.8-105.8 104.5-105.8c55.1 0 95.5 35.8 95.5 107c0 4.6 0 8.7-0.4 13.2zm-49-35.4c0-25.5-14.4-47.7-46.5-47.7c-29.2 0-52.7 20.1-54.7 47.7z"></path><path id="&lt;Compound Path&gt;" class="s2" d="m1330.8 331.1l-23.1-39.5h44.5v-57.2h48.6v57.2h49.4v39.5h-49.4v91.8c0 17.7 4.1 30.4 25.9 30.4c6.6 0 15.2-1.2 21-4.1l1.6 38.7c-8.6 3.3-21.8 5.3-32.9 5.3c-52.2 0-64.2-32.1-64.2-69.9v-92.2z"></path><path id="&lt;Compound Path&gt;" class="s2" d="m1494.1 215.4c18.1 0 32.1 12.7 32.1 29.6c0 16.9-14 29.6-32.1 29.6c-18.1 0-31.3-13.9-31.3-29.6c0-15.6 13.2-29.6 31.3-29.6zm-24.3 76.2h49.4v197.5h-49.4z"></path><path id="&lt;Compound Path&gt;" class="s2" d="m1539.2 291.6h46.9v31.7h0.8c8.7-19.8 32.1-37.5 61.3-37.5c51.5 0 72.9 39.5 72.9 79.9v123.4h-49.4v-109.4c0-23.5-5.4-52.7-37-52.7c-31.3 0-46.1 27.1-46.1 53.5v108.6h-49.4z"></path><path id="&lt;Compound Path&gt;" fill-rule="evenodd" class="s2" d="m1954.8 291.6v179.8c0 71.2-34.5 116.5-111.5 116.5c-32.1 0-72.4-11.5-97.9-32.5l28.4-38.3c18.9 18.1 44.4 28 69.1 28c47.7 0 62.5-28.8 62.5-67.9v-14.4h-0.8c-14.4 19.3-37.4 29.6-64.6 29.6c-59.2 0-97.5-46.9-97.5-102.9c0-57.2 37-103.7 96.7-103.7c27.6 0 53.5 11.6 67.9 35.4h0.8v-29.6zm-162.1 97.5c0 31.3 21 62.6 56.4 62.6c36.6 0 58.8-29.7 58.8-62.6c0-34.1-22.6-62.9-58.4-62.9c-35.8 0-56.8 27.9-56.8 62.9z"></path><g id="&lt;Group&gt;"><path id="&lt;Compound Path&gt;" class="s2" d="m53.1 35.6h49.7v31.7h0.9c9.2-19.8 34-37.5 65-37.5c54.6 0 77.3 39.5 77.3 79.9v123.4h-52.4v-109.5c0-23.4-5.7-52.6-39.3-52.6c-33.2 0-48.9 27.1-48.9 53.5v108.6h-52.3z"></path><path id="&lt;Compound Path&gt;" fill-rule="evenodd" class="s2" d="m505.2 150h-159.3c2.2 28 29.2 48.5 59.8 48.5c26.2 0 43.6-9.8 55.4-25.5l34.9 26.4c-20.5 26.3-50.2 39.5-89.9 39.5c-64.6 0-112.6-39.1-112.6-103.3c0-63.8 47.6-105.8 110.9-105.8c58.5 0 101.2 35.8 101.2 107c0 4.5 0 8.7-0.4 13.2zm-51.9-35.4c0-25.5-15.3-47.7-49.3-47.7c-31 0-55.9 20.1-58.1 47.7z"></path></g></g></svg>